# xmcd CD database file
#
# Track frame offsets:
#	150
#	20655
#	42467
#
# Disc length: 836 seconds
#
# Revision: 4
# Processed by: cddbd v1.5.1PL0 Copyright (c) Steve Scherf et al.
# Submitted via: CDex 1.51
#
DISCID=21034203
DTITLE=安倍 なつみ - 夢ならば
DYEAR=2005
DGENRE=Hello!Project
TTITLE0=夢ならば
TTITLE1=空 LIFE GOES ON
TTITLE2=夢ならば(Insrumental)
EXTD=YEAR: 2005
EXTT0=
EXTT1=
EXTT2=
PLAYORDER=
